<!DOCTYPE svg PUBLIC "-//W3C//DTD SVG 20010904//EN" "http://www.w3.org/TR/2001/REC-SVG-20010904/DTD/svg10.dtd">
<svg version="1.0" xmlns="http://www.w3.org/2000/svg" width="386px" height="173px" viewBox="0 0 3860 1730" preserveAspectRatio="xMidYMid meet">
<g id="layer101" fill="#000000" stroke="none">
<path d="M30 1710 c-24 -24 -24 -21 -5 -90 12 -46 15 -159 15 -663 0 -594 0 -609 -20 -634 -24 -31 -25 -46 -4 -67 13 -14 50 -16 257 -16 l242 1 65 39 65 40 33 -40 34 -40 233 0 233 0 34 40 34 39 39 -39 39 -40 216 0 c205 0 218 1 235 20 l18 20 19 -20 c18 -19 31 -20 270 -20 l252 0 33 32 33 32 1 -25 c0 -13 0 -74 -1 -135 -1 -147 -5 -144 150 -144 153 0 150 -2 150 136 l0 104 274 0 c228 0 277 2 289 15 13 13 16 13 27 0 10 -12 52 -15 245 -15 l233 0 46 54 46 53 0 110 c0 71 -4 113 -12 121 -8 8 -54 12 -139 12 -132 0 -159 -8 -159 -46 0 -8 -7 -14 -16 -14 -12 0 -14 10 -12 51 l3 51 150 80 c83 44 158 87 168 96 15 13 17 37 17 212 0 191 -1 197 -22 217 -31 27 -308 213 -318 213 -10 0 -221 -163 -267 -206 l-33 -31 0 -102 c0 -138 3 -141 148 -141 116 0 148 11 154 52 2 12 9 23 16 26 10 3 12 -7 10 -39 l-3 -43 -145 -83 c-80 -45 -153 -92 -162 -104 -14 -17 -18 -40 -18 -110 l0 -89 -50 0 -50 0 -2 322 -3 322 -95 74 c-150 117 -166 125 -194 96 -14 -13 -16 -65 -16 -415 l0 -399 -55 0 -55 0 0 315 0 314 -72 54 c-100 73 -179 127 -187 127 -4 0 -15 -6 -25 -13 -16 -12 -18 -30 -17 -166 2 -122 -1 -151 -11 -145 -7 4 -126 85 -265 181 -139 95 -259 176 -267 179 -8 3 -24 -4 -35 -15 -17 -17 -21 -33 -21 -91 l0 -70 -136 100 c-75 55 -140 100 -144 100 -9 0 -64 -41 -179 -133 l-94 -75 -56 36 c-31 20 -83 53 -115 74 -33 21 -63 38 -68 38 -4 0 -17 -9 -28 -20 -19 -19 -20 -33 -20 -214 0 -163 -2 -195 -15 -200 -13 -5 -15 22 -15 204 0 203 -1 209 -22 224 -26 19 -33 15 -152 -71 -49 -36 -92 -61 -95 -56 -6 8 -453 367 -545 437 -55 42 -59 43 -86 16z m325 -271 l260 -207 -3 -106 -3 -106 -105 0 -104 0 0 40 c0 36 -4 43 -52 78 -29 21 -59 42 -65 46 -10 6 -13 -66 -13 -343 l0 -351 65 0 c58 0 65 2 65 20 0 19 7 20 105 20 l105 0 0 -87 0 -88 -65 -38 -64 -37 -210 0 c-116 0 -211 4 -211 8 0 4 5 13 10 18 7 7 10 229 8 681 -2 446 0 669 7 665 6 -3 127 -99 270 -213z m1310 -152 l140 -103 3 -112 3 -112 -106 0 -105 0 0 100 c0 55 -3 100 -6 100 -4 0 -33 -23 -65 -51 l-59 -51 0 -84 0 -84 60 0 60 0 0 -105 0 -105 -60 0 -60 0 0 -95 0 -95 65 0 65 0 0 60 0 60 105 0 105 0 0 -123 0 -123 -43 -42 -43 -42 -186 0 -186 0 -41 47 -41 48 0 411 0 411 121 96 c67 53 125 97 128 97 3 0 69 -47 146 -103z m2010 3 l135 -90 0 -179 0 -179 -167 -89 -168 -89 -3 -92 -3 -92 66 0 65 0 0 30 0 30 105 0 105 0 0 -86 c0 -85 -1 -88 -36 -130 l-35 -44 -204 0 -203 0 -31 39 -31 39 2 198 3 197 154 88 c84 48 157 91 163 97 5 5 7 57 6 117 l-3 108 -62 -52 c-37 -31 -63 -61 -63 -72 0 -17 -8 -19 -100 -19 l-100 0 0 88 0 89 123 96 c67 53 127 95 134 92 7 -2 73 -45 148 -95z m-1540 -113 l250 -173 3 -319 2 -319 -42 -43 -42 -43 -228 0 -228 0 0 545 c0 517 1 545 18 536 9 -6 130 -88 267 -184z m843 90 l92 -69 0 -334 0 -334 80 0 80 0 0 -125 0 -125 -265 0 -265 0 0 125 0 125 80 0 80 0 0 411 c0 325 3 409 13 403 6 -4 54 -39 105 -77z m-2031 -367 l63 39 2 196 3 197 103 -67 102 -67 0 -179 0 -179 -70 -37 c-38 -21 -70 -40 -70 -43 0 -3 32 -23 70 -44 l70 -37 0 -156 0 -156 -36 -43 -35 -44 -204 0 -203 0 -31 39 -31 39 0 419 0 419 98 70 97 70 5 -238 5 -238 62 40z m1611 351 l102 -74 0 -449 0 -448 -110 0 -110 0 0 526 c0 289 4 524 8 522 5 -1 54 -36 110 -77z m-2208 -205 c0 -17 7 -42 16 -54 14 -21 22 -22 140 -22 l124 0 0 -195 0 -195 -125 0 c-114 0 -126 -2 -137 -20 -7 -11 -21 -20 -30 -20 -17 0 -18 19 -18 275 0 240 2 274 15 269 9 -4 15 -19 15 -38z m1202 -58 c3 -40 0 -48 -14 -48 -15 0 -18 9 -18 48 0 26 6 54 13 61 14 14 14 13 19 -61z m248 -203 l0 -125 -82 0 -83 0 0 125 0 125 83 0 82 0 0 -125z m-584 -43 c-4 -3 -12 0 -19 7 -9 9 -9 14 3 21 11 7 16 5 18 -6 2 -9 1 -18 -2 -22z m336 -157 c-3 -30 -9 -45 -18 -45 -10 0 -14 13 -14 45 0 36 3 45 18 45 14 0 17 -7 14 -45z m1108 -445 l0 -90 -110 0 -110 0 0 90 0 90 110 0 110 0 0 -90z"/>
<path d="M2050 751 l0 -261 65 0 65 0 0 219 0 218 -37 25 c-21 14 -50 33 -65 42 l-28 18 0 -261z m80 -32 c0 -152 -2 -179 -15 -179 -13 0 -15 28 -15 191 0 169 2 190 15 179 12 -10 15 -45 15 -191z"/>
<path d="M880 570 l0 -90 65 0 65 0 0 54 0 55 -59 35 c-32 20 -61 36 -65 36 -3 0 -6 -40 -6 -90z m80 -26 c0 -8 -7 -14 -15 -14 -10 0 -15 10 -15 26 0 22 2 25 15 14 8 -7 15 -19 15 -26z"/>
</g>
<g id="layer102" fill="#282828" stroke="none">
<path d="M57 1658 c12 -60 23 -86 17 -39 -5 35 -4 42 7 35 8 -4 131 -101 274 -215 l260 -207 -3 -106 -3 -106 -105 0 -104 0 0 40 c0 36 -4 43 -52 78 -29 21 -59 42 -65 46 -10 6 -13 -66 -13 -343 l0 -351 65 0 c58 0 65 2 65 20 0 19 7 20 105 20 l105 0 0 -87 0 -88 -60 -34 c-33 -19 -58 -37 -55 -39 2 -2 31 12 64 33 l61 36 0 95 0 94 -115 0 c-108 0 -115 -1 -115 -20 0 -18 -7 -20 -55 -20 l-55 0 0 335 c0 276 2 335 13 328 7 -4 32 -21 55 -38 37 -27 42 -34 42 -72 l0 -43 115 0 115 0 2 105 c0 58 1 109 2 113 1 7 -524 432 -561 455 -10 6 -11 0 -6 -25z"/>
<path d="M1383 1299 l-123 -100 0 -417 1 -417 40 -42 c54 -58 60 -54 10 5 l-41 48 0 410 0 410 115 93 c64 50 121 94 128 96 7 3 75 -41 152 -98 l140 -103 3 -112 3 -112 -106 0 -105 0 0 100 c0 55 -3 100 -6 100 -4 0 -33 -23 -65 -51 l-59 -51 2 -86 2 -87 5 86 6 86 50 43 50 43 3 -96 3 -97 114 0 115 0 0 118 0 118 -145 107 c-80 59 -151 107 -158 106 -6 0 -67 -45 -134 -100z"/>
<path d="M3382 1299 l-123 -100 3 -92 3 -92 108 -3 c102 -3 107 -2 107 18 0 18 41 62 92 98 17 13 18 8 18 -85 l0 -99 -165 -94 -165 -94 0 -199 0 -199 28 -39 c15 -21 31 -39 35 -39 5 0 -5 18 -22 39 l-31 39 2 198 3 197 154 88 c84 48 157 91 163 97 5 5 7 57 6 117 l-3 108 -62 -52 c-37 -31 -63 -61 -63 -72 0 -17 -8 -19 -100 -19 l-100 0 0 89 0 88 107 84 c59 46 115 90 126 98 17 12 33 3 163 -83 l144 -96 0 -179 0 -179 -167 -89 -168 -89 -3 -92 -3 -92 66 0 65 0 0 30 0 30 105 0 105 0 0 -86 c0 -85 -1 -88 -36 -130 -19 -24 -32 -44 -27 -44 5 0 23 19 41 42 31 40 32 45 32 135 l0 93 -115 0 -115 0 0 -30 c0 -30 -1 -30 -55 -30 l-55 0 0 83 0 82 170 90 170 90 0 185 0 185 -144 98 c-80 53 -150 97 -158 96 -7 0 -68 -45 -136 -100z"/>
<path d="M1842 828 l3 -553 5 548 5 547 265 -183 265 -183 3 -319 2 -319 -42 -43 c-23 -24 -38 -43 -32 -43 5 0 27 17 47 38 l37 38 0 325 0 325 -267 185 c-147 101 -273 185 -280 187 -11 3 -13 -97 -11 -550z"/>
<path d="M2852 948 l3 -423 5 413 5 413 102 -76 103 -77 3 -336 2 -337 2 340 2 340 -106 80 c-58 44 -109 82 -114 83 -5 2 -8 -181 -7 -420z"/>
<path d="M772 1275 l-102 -75 0 -421 0 -421 28 -39 c15 -21 31 -39 35 -39 5 0 -5 18 -22 39 l-31 39 0 419 0 419 100 72 100 71 2 -239 3 -240 62 40 63 39 2 196 3 197 103 -67 102 -67 0 -179 0 -179 -70 -37 c-38 -21 -70 -40 -70 -43 0 -3 32 -23 70 -44 l70 -37 0 -156 0 -156 -36 -43 c-19 -24 -32 -44 -27 -44 5 0 23 19 41 42 l32 42 0 160 0 161 -64 35 c-36 19 -62 38 -60 42 2 4 31 22 64 40 l60 33 0 185 0 185 -113 72 -112 72 -5 -204 -5 -204 -48 -31 c-26 -16 -50 -30 -52 -30 -3 0 -5 106 -5 235 0 129 -4 235 -8 235 -4 0 -54 -34 -110 -75z"/>
<path d="M2440 1342 c1 -11 220 -169 220 -158 0 2 -49 41 -110 85 -60 45 -110 78 -110 73z"/>
<path d="M2050 751 l0 -261 65 0 65 0 0 219 0 218 -37 25 c-21 14 -50 33 -65 42 l-28 18 0 -261z m98 187 c22 -11 22 -13 22 -225 l0 -213 -55 0 -55 0 0 246 0 246 33 -22 c17 -11 42 -26 55 -32z"/>
<path d="M1590 785 l0 -105 -60 0 -60 0 0 -95 0 -95 65 0 65 0 0 60 0 60 105 0 105 0 0 -123 0 -123 -40 -39 c-22 -21 -37 -41 -35 -44 3 -2 23 13 45 34 l40 39 0 133 0 133 -115 0 -115 0 0 -60 0 -60 -55 0 -55 0 0 85 0 85 60 0 60 0 0 110 c0 61 -2 110 -5 110 -3 0 -5 -47 -5 -105z"/>
<path d="M880 570 l0 -90 65 0 65 0 0 54 0 55 -59 35 c-32 20 -61 36 -65 36 -3 0 -6 -40 -6 -90z m120 -32 l0 -48 -55 0 -55 0 0 80 0 79 55 -32 c54 -32 55 -33 55 -79z"/>
<path d="M2694 405 c0 -72 1 -99 3 -62 2 37 2 96 0 130 -2 34 -3 4 -3 -68z"/>
<path d="M57 304 c-10 -13 -14 -24 -10 -24 9 0 36 40 31 45 -2 2 -11 -8 -21 -21z"/>
</g>
<g id="layer103" fill="#4c4c4c" stroke="none">
<path d="M58 1653 c4 -22 6 -24 11 -10 5 15 56 -21 276 -196 l270 -214 -3 -106 -3 -106 -107 -4 -107 -3 112 -2 112 -2 3 113 c2 90 0 114 -12 123 -8 7 -134 107 -279 223 -145 116 -267 211 -271 211 -4 0 -5 -12 -2 -27z"/>
<path d="M1399 1310 c-63 -51 -118 -97 -124 -103 -16 -17 9 1 129 96 59 48 111 87 115 87 3 0 69 -47 146 -103 l140 -103 6 -115 5 -114 2 115 1 115 -141 103 c-77 57 -146 106 -153 108 -6 3 -63 -36 -126 -86z"/>
<path d="M3400 1309 c-63 -49 -119 -95 -125 -102 -15 -16 5 -2 120 88 55 43 106 83 113 88 9 7 53 -17 157 -87 l145 -96 0 -180 0 -180 -70 -35 c-38 -19 -70 -38 -70 -41 0 -3 33 12 73 33 l72 38 0 185 0 185 -145 98 c-79 53 -147 97 -150 97 -3 0 -57 -41 -120 -91z"/>
<path d="M1842 829 l3 -554 5 548 5 547 265 -183 265 -183 3 -319 2 -319 -42 -45 -43 -46 48 45 47 44 0 321 0 320 -266 183 c-146 101 -272 186 -280 189 -12 4 -14 -78 -12 -548z"/>
<path d="M2852 948 l3 -423 5 413 5 413 102 -76 103 -77 3 -336 2 -337 3 337 2 337 -102 79 c-57 43 -109 82 -115 86 -10 6 -13 -80 -11 -416z"/>
<path d="M781 1280 c-51 -38 -96 -72 -100 -76 -12 -14 24 10 111 73 l88 63 2 -240 3 -240 62 40 63 39 2 196 3 197 103 -67 102 -67 0 -179 0 -179 -70 -37 c-38 -21 -70 -40 -70 -43 0 -3 32 -23 70 -44 l70 -37 0 -156 0 -156 -36 -46 -36 -46 41 44 41 44 -2 161 -3 161 -62 34 c-35 19 -63 37 -63 40 0 3 29 22 65 41 l65 35 0 183 0 182 -106 70 c-58 39 -110 70 -115 70 -5 0 -9 -87 -9 -199 l0 -199 -50 -31 c-28 -17 -52 -31 -55 -31 -3 0 -5 106 -5 235 0 129 -3 235 -7 235 -5 -1 -50 -32 -102 -70z"/>
<path d="M2535 1267 c101 -74 139 -99 120 -80 -19 19 -204 153 -211 153 -5 0 37 -33 91 -73z"/>
<path d="M270 841 l0 -351 68 2 67 2 -62 3 -63 4 0 334 c0 303 4 359 24 327 7 -11 96 -74 96 -68 0 5 -88 72 -117 90 -10 6 -13 -66 -13 -343z"/>
<path d="M1527 1107 l-58 -52 3 -85 4 -85 2 86 2 85 55 47 54 48 4 -98 3 -98 2 103 c1 56 -1 102 -5 102 -5 0 -34 -24 -66 -53z"/>
<path d="M3533 1111 c-36 -31 -63 -61 -63 -72 0 -16 -10 -19 -102 -22 l-103 -3 105 0 c98 1 104 2 110 23 4 19 89 103 104 103 3 0 6 -45 6 -99 l0 -99 -143 -81 c-78 -44 -151 -88 -162 -97 -19 -15 -19 -15 5 -2 14 8 87 50 163 93 77 43 141 84 143 90 3 6 3 58 2 115 l-3 103 -62 -52z"/>
<path d="M2050 751 l0 -261 65 0 65 0 0 219 0 218 -37 25 c-21 14 -50 33 -65 42 l-28 18 0 -261z m70 207 l50 -33 0 -212 0 -213 -55 0 -55 0 0 245 c0 135 2 245 5 245 3 0 28 -15 55 -32z"/>
<path d="M1590 785 l0 -105 -60 0 -60 0 0 -95 0 -95 65 0 65 0 0 60 0 60 105 0 105 0 0 -122 0 -122 -42 -46 -43 -45 48 45 48 45 -3 125 -3 125 -110 0 -110 0 -3 -57 -3 -58 -54 0 -55 0 0 85 0 85 60 0 60 0 0 110 c0 61 -2 110 -5 110 -3 0 -5 -47 -5 -105z"/>
<path d="M3578 719 c-43 -21 -78 -41 -78 -44 0 -3 36 13 80 35 44 22 80 42 80 45 0 7 4 8 -82 -36z"/>
<path d="M3477 663 c-4 -3 -7 -46 -7 -95 l0 -88 65 0 65 0 0 30 0 30 105 0 105 0 0 -86 c0 -84 -1 -88 -36 -133 l-36 -46 41 44 41 44 0 93 0 94 -115 0 -115 0 0 -30 c0 -30 0 -30 -56 -30 l-55 0 3 90 c2 50 3 90 2 90 0 0 -4 -3 -7 -7z"/>
<path d="M880 570 l0 -90 65 0 65 0 0 54 c0 30 -3 57 -7 59 -5 3 -6 -19 -5 -49 l4 -54 -56 0 -56 0 0 80 0 81 45 -27 c25 -14 45 -24 45 -21 0 6 -85 57 -94 57 -3 0 -6 -40 -6 -90z"/>
<path d="M503 533 l107 -4 0 -87 0 -87 -60 -34 c-33 -19 -58 -36 -56 -38 2 -2 31 13 65 33 l61 36 0 94 0 94 -112 -2 -113 -2 108 -3z"/>
<path d="M3234 405 c0 -72 1 -99 3 -62 2 37 2 96 0 130 -2 34 -3 4 -3 -68z"/>
<path d="M1270 362 c0 -4 19 -26 42 -47 l41 -40 -38 48 c-40 49 -45 53 -45 39z"/>
<path d="M700 320 c11 -16 26 -33 32 -36 7 -4 -1 9 -16 29 -34 44 -46 50 -16 7z"/>
<path d="M3290 320 c11 -16 26 -33 32 -36 7 -4 -1 9 -16 29 -34 44 -46 50 -16 7z"/>
<path d="M2493 233 c31 -2 83 -2 115 0 31 2 5 3 -58 3 -63 0 -89 -1 -57 -3z"/>
<path d="M2493 43 c31 -2 83 -2 115 0 31 2 5 3 -58 3 -63 0 -89 -1 -57 -3z"/>
</g>
<g id="layer104" fill="#cbcbcb" stroke="none">
<path d="M61 1658 c0 -13 3 -17 6 -10 2 6 10 9 16 5 7 -4 6 1 -2 10 -18 22 -21 21 -20 -5z"/>
<path d="M2852 943 l3 -418 2 413 c3 307 6 411 15 406 7 -4 8 -3 4 4 -23 37 -26 -15 -24 -405z"/>
<path d="M884 1100 c0 -135 2 -190 3 -122 2 67 2 177 0 245 -1 67 -3 12 -3 -123z"/>
<path d="M3798 1208 c10 -12 12 -60 10 -196 -2 -99 0 -178 5 -175 4 2 7 84 7 182 0 158 -2 180 -17 192 -16 13 -17 12 -5 -3z"/>
<path d="M1215 1020 c0 -103 3 -186 8 -183 4 2 7 85 7 183 0 98 -3 181 -7 183 -5 3 -8 -80 -8 -183z"/>
<path d="M1792 1195 c14 -16 18 -45 21 -130 l3 -110 2 111 c2 104 1 112 -20 130 -23 19 -23 19 -6 -1z"/>
<path d="M275 840 c0 -195 1 -275 2 -178 2 98 2 258 0 355 -1 98 -2 18 -2 -177z"/>
<path d="M1496 1082 c-26 -28 -27 -33 -23 -113 l3 -84 2 84 c2 77 4 88 29 113 15 15 24 28 22 28 -3 0 -18 -13 -33 -28z"/>
<path d="M3491 1076 c-13 -14 -21 -32 -18 -43 4 -17 5 -17 6 1 0 11 11 30 23 43 12 13 19 23 16 23 -2 0 -15 -11 -27 -24z"/>
<path d="M453 1013 c32 -2 81 -2 110 0 29 2 3 3 -58 3 -60 0 -84 -1 -52 -3z"/>
<path d="M2378 1010 c9 -11 12 -91 12 -329 l0 -315 -42 -46 -43 -45 48 45 47 44 0 317 c0 290 -1 318 -17 330 -15 11 -16 11 -5 -1z"/>
<path d="M2054 750 c0 -146 2 -205 3 -132 2 72 2 192 0 265 -1 72 -3 13 -3 -133z"/>
<path d="M3698 784 c-38 -20 -36 -28 2 -9 17 9 30 18 30 20 0 7 -1 6 -32 -11z"/>
<path d="M3528 694 c-38 -20 -36 -28 2 -9 17 9 30 18 30 20 0 7 -1 6 -32 -11z"/>
<path d="M1220 527 l5 -162 3 154 c1 85 -1 158 -5 162 -5 5 -6 -65 -3 -154z"/>
<path d="M1472 583 l2 -98 3 92 4 92 57 4 57 3 -62 2 -63 2 2 -97z"/>
<path d="M3474 657 c-3 -8 -4 -52 -2 -98 l3 -84 5 98 c5 96 4 109 -6 84z"/>
<path d="M882 568 c1 -95 5 -83 10 30 2 34 0 62 -4 62 -5 0 -7 -42 -6 -92z"/>
<path d="M1812 490 l-2 -124 -42 -46 -43 -45 48 45 48 46 -4 124 -3 125 -2 -125z"/>
<path d="M3702 543 l107 -4 4 -87 3 -87 0 90 -1 90 -110 1 -110 0 107 -3z"/>
<path d="M453 533 c32 -2 81 -2 110 0 29 2 3 3 -58 3 -60 0 -84 -1 -52 -3z"/>
</g>


</svg>